<svg width="1366" height="778" viewBox="0 0 1366 778" fill="none" xmlns="http://www.w3.org/2000/svg">
<rect width="1366" height="778" fill="#EFEFEF"/>
<rect x="796" width="388" height="778" fill="#E2D8D0"/>
<path d="M1171 204.797L1171 187.764L1185.24 187.869L1185.24 204.797C1185.24 208.312 1186.08 211.283 1187.77 213.709C1189.46 216.17 1191.97 218.033 1195.31 219.299C1198.69 220.6 1202.83 221.25 1207.76 221.25L1211.08 221.25C1214.77 221.25 1218 220.881 1220.78 220.143C1223.59 219.439 1225.93 218.385 1227.79 216.979C1229.69 215.572 1231.12 213.814 1232.07 211.705C1233.02 209.631 1233.49 207.24 1233.49 204.533L1233.49 187.447L1247.78 187.447L1247.78 204.533C1247.78 209.736 1246.88 214.5 1245.09 218.824C1243.33 223.184 1240.8 226.945 1237.5 230.109C1234.23 233.309 1230.34 235.77 1225.84 237.492C1221.38 239.25 1216.42 240.129 1210.97 240.129L1207.76 240.129C1202.34 240.129 1197.38 239.25 1192.88 237.492C1188.38 235.77 1184.5 233.326 1181.23 230.162C1177.96 226.998 1175.43 223.254 1173.64 218.93C1171.88 214.641 1171 209.93 1171 204.797ZM1247.78 198.363L1171 198.363L1171 179.854L1247.78 179.854L1247.78 198.363ZM1185.24 302.619L1171 302.619L1171 261.697L1185.24 261.697L1185.24 302.619ZM1247.78 268.289L1171 268.289L1171 249.779L1247.78 249.779L1247.78 268.289ZM1217.3 297.346L1203.54 297.346L1203.54 261.697L1217.3 261.697L1217.3 297.346ZM1247.78 302.777L1233.49 302.777L1233.49 261.697L1247.78 261.697L1247.78 302.777ZM1191.41 349.764C1192.6 349.764 1193.68 349.588 1194.62 349.236C1195.61 348.885 1196.52 348.234 1197.37 347.285C1198.21 346.336 1199.05 344.965 1199.9 343.172C1200.78 341.414 1201.69 339.094 1202.64 336.211C1203.77 332.836 1205.03 329.584 1206.44 326.455C1207.88 323.326 1209.55 320.531 1211.45 318.07C1213.38 315.609 1215.63 313.658 1218.2 312.217C1220.8 310.775 1223.82 310.055 1227.27 310.055C1230.57 310.055 1233.54 310.793 1236.18 312.27C1238.85 313.746 1241.12 315.803 1242.98 318.439C1244.88 321.111 1246.32 324.24 1247.31 327.826C1248.33 331.412 1248.84 335.332 1248.84 339.586C1248.84 345.211 1247.85 350.168 1245.88 354.457C1243.95 358.781 1241.19 362.156 1237.6 364.582C1234.05 367.043 1229.85 368.273 1225 368.273L1225 349.869C1226.93 349.869 1228.64 349.465 1230.12 348.656C1231.59 347.883 1232.75 346.705 1233.6 345.123C1234.44 343.541 1234.86 341.555 1234.86 339.164C1234.86 336.844 1234.51 334.893 1233.81 333.311C1233.1 331.729 1232.15 330.533 1230.96 329.725C1229.8 328.916 1228.52 328.512 1227.11 328.512C1225.95 328.512 1224.89 328.828 1223.95 329.461C1223.03 330.129 1222.17 331.061 1221.36 332.256C1220.55 333.486 1219.78 334.963 1219.04 336.686C1218.3 338.443 1217.58 340.412 1216.88 342.592C1215.58 346.67 1214.12 350.291 1212.5 353.455C1210.92 356.654 1209.11 359.344 1207.07 361.523C1205.07 363.738 1202.78 365.408 1200.21 366.533C1197.65 367.693 1194.75 368.273 1191.51 368.273C1188.07 368.273 1185.01 367.605 1182.34 366.27C1179.67 364.934 1177.4 363.018 1175.54 360.521C1173.71 358.025 1172.32 355.037 1171.37 351.557C1170.42 348.076 1169.95 344.191 1169.95 339.902C1169.95 335.965 1170.44 332.08 1171.42 328.248C1172.44 324.451 1173.99 321.006 1176.06 317.912C1178.17 314.818 1180.86 312.34 1184.13 310.477C1187.44 308.648 1191.36 307.734 1195.89 307.734L1195.89 326.297C1193.64 326.297 1191.74 326.596 1190.2 327.193C1188.65 327.791 1187.4 328.67 1186.45 329.83C1185.54 330.99 1184.87 332.414 1184.45 334.102C1184.06 335.789 1183.87 337.723 1183.87 339.902C1183.87 342.258 1184.2 344.156 1184.87 345.598C1185.57 347.039 1186.49 348.094 1187.61 348.762C1188.77 349.43 1190.04 349.764 1191.41 349.764ZM1247.78 397.488L1171 397.488L1171 379.031L1247.78 379.031L1247.78 397.488ZM1212.03 473.32L1180.49 473.32C1179.05 472.02 1177.5 470.016 1175.85 467.309C1174.23 464.637 1172.85 461.262 1171.69 457.184C1170.53 453.105 1169.95 448.307 1169.95 442.787C1169.95 437.689 1170.75 433.066 1172.37 428.918C1174.02 424.77 1176.43 421.201 1179.6 418.213C1182.79 415.26 1186.7 412.975 1191.3 411.357C1195.94 409.775 1201.25 408.984 1207.23 408.984L1211.5 408.984C1217.48 408.984 1222.79 409.793 1227.43 411.41C1232.07 413.027 1235.97 415.295 1239.13 418.213C1242.33 421.166 1244.76 424.629 1246.41 428.602C1248.06 432.609 1248.89 437.004 1248.89 441.785C1248.89 448.852 1247.76 454.6 1245.51 459.029C1243.3 463.459 1240.22 466.816 1236.29 469.102C1232.38 471.387 1227.87 472.775 1222.73 473.268L1222.73 455.496C1225.26 455.145 1227.41 454.477 1229.17 453.492C1230.96 452.543 1232.31 451.172 1233.23 449.379C1234.18 447.586 1234.65 445.266 1234.65 442.418C1234.65 440.203 1234.18 438.182 1233.23 436.354C1232.28 434.561 1230.84 433.031 1228.9 431.766C1227 430.5 1224.61 429.516 1221.73 428.812C1218.85 428.145 1215.47 427.811 1211.61 427.811L1207.23 427.811C1203.4 427.811 1200.04 428.127 1197.16 428.76C1194.27 429.428 1191.87 430.412 1189.93 431.713C1188.03 433.049 1186.59 434.736 1185.61 436.775C1184.66 438.85 1184.18 441.293 1184.18 444.105C1184.18 446.074 1184.34 447.762 1184.66 449.168C1185.01 450.574 1185.43 451.734 1185.92 452.648C1186.45 453.598 1186.94 454.318 1187.4 454.811L1199.32 454.811L1199.32 441.943L1212.03 441.943L1212.03 473.32ZM1247.78 548.256L1171 548.256L1171 529.799L1218.78 502.641L1171 502.641L1171 484.131L1247.78 484.131L1247.78 502.641L1200 529.799L1247.78 529.799L1247.78 548.256ZM1185.24 612.803L1171 612.803L1171 571.881L1185.24 571.881L1185.24 612.803ZM1247.78 578.473L1171 578.473L1171 559.963L1247.78 559.963L1247.78 578.473ZM1217.3 607.529L1203.54 607.529L1203.54 571.881L1217.3 571.881L1217.3 607.529ZM1247.78 612.961L1233.49 612.961L1233.49 571.881L1247.78 571.881L1247.78 612.961ZM1247.78 620.396L1247.78 650.613C1247.78 656.52 1246.9 661.652 1245.14 666.012C1243.39 670.371 1240.79 673.729 1237.34 676.084C1233.89 678.475 1229.64 679.67 1224.58 679.67C1220.18 679.67 1216.51 678.984 1213.56 677.613C1210.6 676.242 1208.16 674.326 1206.23 671.865C1204.33 669.439 1202.76 666.609 1201.53 663.375L1198.11 657.311L1198.11 631.945L1212.4 631.84L1212.4 650.613C1212.4 652.969 1212.82 654.92 1213.66 656.467C1214.51 658.014 1215.7 659.174 1217.25 659.947C1218.83 660.756 1220.71 661.16 1222.89 661.16C1225.11 661.16 1227 660.756 1228.59 659.947C1230.17 659.139 1231.38 657.943 1232.22 656.361C1233.07 654.814 1233.49 652.898 1233.49 650.613L1233.49 638.906L1171 638.906L1171 620.396L1247.78 620.396ZM1171 662.426L1204.96 645.445L1205.07 665.062L1171.79 682.254L1171 682.254L1171 662.426Z" fill="#E2D8D0"/>
</svg>
