<svg width="40" height="40" viewBox="0 0 40 40" fill="none" xmlns="http://www.w3.org/2000/svg">
<circle cx="20" cy="20" r="20" fill="#134D57"/>
<path d="M17.0723 16C17.4762 16 17.8497 16.0286 18.191 16.1131C18.5329 16.1697 18.8129 16.2829 19.0613 16.424C19.3104 16.5653 19.4968 16.7632 19.6207 17.0177C19.7452 17.272 19.8078 17.5834 19.8078 17.9223C19.8078 18.3183 19.7142 18.6571 19.4968 18.9114C19.3104 19.1663 18.9994 19.392 18.6265 19.5617C19.1549 19.7034 19.5588 19.9577 19.8078 20.2966C20.0568 20.6354 20.2117 21.06 20.2117 21.5406C20.2117 21.9366 20.1181 22.2754 19.9626 22.5583C19.8078 22.8411 19.5588 23.0954 19.2788 23.2651C18.9745 23.4468 18.6383 23.5806 18.2846 23.6606C17.9116 23.7457 17.5387 23.8023 17.1658 23.8023H13V16H17.0723ZM16.8233 19.1657C17.1652 19.1657 17.4452 19.0811 17.6626 18.94C17.88 18.7989 17.9736 18.544 17.9736 18.2331C17.9736 18.0634 17.942 17.8937 17.88 17.7811C17.8181 17.6686 17.7246 17.5829 17.6007 17.4983C17.474 17.434 17.3378 17.3864 17.1962 17.3571C17.0407 17.3286 16.8858 17.3286 16.6987 17.3286H14.8961V19.1663L16.8233 19.1657ZM16.9168 22.5017C17.1033 22.5017 17.2897 22.4731 17.4452 22.4451C17.6007 22.4166 17.7562 22.3606 17.88 22.2754C18.0062 22.1922 18.1121 22.0864 18.191 21.9646C18.2529 21.8234 18.3155 21.6537 18.3155 21.456C18.3155 21.06 18.191 20.7771 17.9426 20.5794C17.6936 20.4097 17.3516 20.3251 16.9478 20.3251H14.8961V22.5023L16.9168 22.5017ZM22.9162 22.4731C23.1648 22.6994 23.5377 22.8126 24.0349 22.8126C24.3769 22.8126 24.6878 22.728 24.9362 22.5869C25.1853 22.4169 25.3407 22.2472 25.4027 22.0777H26.9259C26.6769 22.756 26.304 23.2366 25.8072 23.5474C25.3091 23.8303 24.7188 24 24.004 24C23.5466 24.0006 23.0933 23.9239 22.6672 23.7737C22.2836 23.6444 21.9417 23.4307 21.6723 23.152C21.383 22.8922 21.1696 22.5716 21.051 22.2189C20.8955 21.8514 20.833 21.456 20.833 21.0034C20.833 20.5794 20.8955 20.184 21.051 19.816C21.2002 19.4615 21.4216 19.1354 21.7039 18.8549C21.9833 18.6006 22.3252 18.3749 22.6981 18.2331C23.1133 18.0825 23.5566 18.0056 24.004 18.0069C24.5323 18.0069 24.9988 18.092 25.4027 18.2897C25.8072 18.4874 26.1175 18.7137 26.3659 19.0531C26.6149 19.364 26.802 19.7314 26.9259 20.1274C26.9879 20.5229 27.0188 20.9189 26.9879 21.3709H22.4807C22.4807 21.8234 22.6672 22.2474 22.9162 22.4737M24.8743 19.5057C24.6569 19.308 24.3149 19.1949 23.9104 19.1949C23.6732 19.1916 23.4387 19.2401 23.2265 19.336C23.0401 19.4211 22.9162 19.5343 22.7917 19.6474C22.6766 19.7563 22.6007 19.8942 22.5743 20.0429C22.5427 20.1846 22.5117 20.2971 22.5117 20.4103H25.3091C25.2472 19.9863 25.0917 19.704 24.8743 19.5057ZM22.1388 16.5371H25.6201V17.3006H22.1394L22.1388 16.5371Z" fill="white"/>
</svg>
