<svg width="40" height="40" viewBox="0 0 40 40" fill="none" xmlns="http://www.w3.org/2000/svg">
<circle cx="20" cy="20" r="20" fill="#134D57"/>
<path d="M17.06 14H22.94C25.18 14 27 15.82 27 18.06V23.94C27 25.0168 26.5723 26.0495 25.8109 26.8109C25.0495 27.5723 24.0168 28 22.94 28H17.06C14.82 28 13 26.18 13 23.94V18.06C13 16.9832 13.4277 15.9505 14.1891 15.1891C14.9505 14.4277 15.9832 14 17.06 14ZM16.92 15.4C16.2517 15.4 15.6107 15.6655 15.1381 16.1381C14.6655 16.6107 14.4 17.2517 14.4 17.92V24.08C14.4 25.473 15.527 26.6 16.92 26.6H23.08C23.7483 26.6 24.3893 26.3345 24.8619 25.8619C25.3345 25.3893 25.6 24.7483 25.6 24.08V17.92C25.6 16.527 24.473 15.4 23.08 15.4H16.92ZM23.675 16.45C23.9071 16.45 24.1296 16.5422 24.2937 16.7063C24.4578 16.8704 24.55 17.0929 24.55 17.325C24.55 17.5571 24.4578 17.7796 24.2937 17.9437C24.1296 18.1078 23.9071 18.2 23.675 18.2C23.4429 18.2 23.2204 18.1078 23.0563 17.9437C22.8922 17.7796 22.8 17.5571 22.8 17.325C22.8 17.0929 22.8922 16.8704 23.0563 16.7063C23.2204 16.5422 23.4429 16.45 23.675 16.45ZM20 17.5C20.9283 17.5 21.8185 17.8687 22.4749 18.5251C23.1313 19.1815 23.5 20.0717 23.5 21C23.5 21.9283 23.1313 22.8185 22.4749 23.4749C21.8185 24.1313 20.9283 24.5 20 24.5C19.0717 24.5 18.1815 24.1313 17.5251 23.4749C16.8687 22.8185 16.5 21.9283 16.5 21C16.5 20.0717 16.8687 19.1815 17.5251 18.5251C18.1815 17.8687 19.0717 17.5 20 17.5ZM20 18.9C19.443 18.9 18.9089 19.1212 18.5151 19.5151C18.1212 19.9089 17.9 20.443 17.9 21C17.9 21.557 18.1212 22.0911 18.5151 22.4849C18.9089 22.8788 19.443 23.1 20 23.1C20.557 23.1 21.0911 22.8788 21.4849 22.4849C21.8788 22.0911 22.1 21.557 22.1 21C22.1 20.443 21.8788 19.9089 21.4849 19.5151C21.0911 19.1212 20.557 18.9 20 18.9Z" fill="white"/>
</svg>
