<svg width="40" height="40" viewBox="0 0 40 40" fill="none" xmlns="http://www.w3.org/2000/svg">
<circle cx="20" cy="20" r="20" fill="#134D57"/>
<path d="M17.3085 15.1116C17.3083 15.4063 17.1866 15.6888 16.97 15.8971C16.7534 16.1053 16.4598 16.2222 16.1537 16.2221C15.8475 16.222 15.554 16.1048 15.3377 15.8963C15.1213 15.6878 14.9998 15.4052 15 15.1105C15.0002 14.8158 15.1219 14.5333 15.3385 14.325C15.5551 14.1168 15.8487 13.9999 16.1548 14C16.461 14.0001 16.7545 14.1173 16.9708 14.3258C17.1872 14.5343 17.3087 14.8169 17.3085 15.1116ZM17.3431 17.0448H15.0346V24H17.3431V17.0448ZM20.9906 17.0448H18.6936V24H20.9675V20.3502C20.9675 18.317 23.7204 18.1281 23.7204 20.3502V24H26V19.5947C26 16.1671 21.9255 16.2949 20.9675 17.9781L20.9906 17.0448Z" fill="white"/>
</svg>
